<svg width="75" height="76" viewBox="0 0 75 76" fill="none" xmlns="http://www.w3.org/2000/svg">
<path fill-rule="evenodd" clip-rule="evenodd" d="M30.5562 66.125H44.4437C54.1969 66.125 59.075 66.125 62.5781 63.8281C64.0901 62.838 65.392 61.5594 66.4094 60.0656C68.75 56.6281 68.75 51.8375 68.75 42.2625C68.75 32.6875 68.75 27.8969 66.4094 24.4594C65.392 22.9656 64.0901 21.6871 62.5781 20.6969C60.3281 19.2188 57.5094 18.6906 53.1937 18.5031C51.1344 18.5031 49.3625 16.9719 48.9594 14.9875C48.6513 13.534 47.8508 12.2314 46.6933 11.2999C45.5357 10.3684 44.092 9.86505 42.6063 9.87502H32.3938C29.3063 9.87502 26.6469 12.0156 26.0406 14.9875C25.6375 16.9719 23.8656 18.5031 21.8063 18.5031C17.4938 18.6906 14.675 19.2219 12.4219 20.6969C10.9111 21.6874 9.61023 22.9659 8.59375 24.4594C6.25 27.8969 6.25 32.6844 6.25 42.2625C6.25 51.8406 6.25 56.625 8.59063 60.0656C9.60313 61.5532 10.9031 62.8313 12.4219 63.8281C15.925 66.125 20.8031 66.125 30.5562 66.125ZM37.5 29.4781C30.3094 29.4781 24.4781 35.2 24.4781 42.2594C24.4781 49.3188 30.3125 55.05 37.5 55.05C44.6875 55.05 50.5219 49.325 50.5219 42.2656C50.5219 35.2063 44.6875 29.4781 37.5 29.4781ZM37.5 34.5907C33.1875 34.5907 29.6875 38.025 29.6875 42.2625C29.6875 46.4969 33.1875 49.9313 37.5 49.9313C41.8125 49.9313 45.3125 46.4969 45.3125 42.2625C45.3125 38.0282 41.8125 34.5907 37.5 34.5907ZM52.2562 32.0344C52.2562 30.6219 53.4219 29.4781 54.8625 29.4781H58.3313C59.7688 29.4781 60.9375 30.6219 60.9375 32.0344C60.9309 32.7185 60.653 33.3719 60.1649 33.8512C59.6768 34.3305 59.0184 34.5965 58.3344 34.5907H54.8625C54.5235 34.5939 54.1872 34.5304 53.8728 34.4038C53.5583 34.2771 53.2719 34.0897 53.0299 33.8523C52.7879 33.615 52.595 33.3322 52.4623 33.0203C52.3295 32.7084 52.2595 32.3734 52.2562 32.0344Z" fill="#B0B0B0"/>
</svg>
