<svg width="20" height="20" viewBox="0 0 20 20" fill="none" xmlns="http://www.w3.org/2000/svg">
<g clip-path="url(#clip0_72_9)">
<path fill-rule="evenodd" clip-rule="evenodd" d="M16.875 3.125H3.125C2.43464 3.125 1.875 3.68464 1.875 4.375V15.625C1.875 16.3154 2.43464 16.875 3.125 16.875H16.875C17.5654 16.875 18.125 16.3154 18.125 15.625V4.375C18.125 3.68464 17.5654 3.125 16.875 3.125ZM16.875 15.625H3.125V4.375H16.875V15.625ZM13.75 6.875C13.75 8.94607 12.0711 10.625 10 10.625C7.92893 10.625 6.25 8.94607 6.25 6.875C6.25 6.52982 6.52982 6.25 6.875 6.25C7.22018 6.25 7.5 6.52982 7.5 6.875C7.5 8.25571 8.61929 9.375 10 9.375C11.3807 9.375 12.5 8.25571 12.5 6.875C12.5 6.52982 12.7798 6.25 13.125 6.25C13.4702 6.25 13.75 6.52982 13.75 6.875Z" fill="#0C0C20"/>
</g>
<defs>
<clipPath id="clip0_72_9">
<rect width="20" height="20" fill="white"/>
</clipPath>
</defs>
</svg>
