<svg width="20" height="20" viewBox="0 0 20 20" fill="none" xmlns="http://www.w3.org/2000/svg">
<path d="M11.3575 17.06L10.9058 17.8233C10.5033 18.5033 9.49749 18.5033 9.09416 17.8233L8.64249 17.06C8.29249 16.4683 8.11749 16.1717 7.83582 16.0083C7.55416 15.8442 7.19999 15.8383 6.49166 15.8258C5.44499 15.8083 4.78916 15.7442 4.23916 15.5158C3.73363 15.3064 3.27429 14.9995 2.88738 14.6126C2.50047 14.2257 2.19355 13.7664 1.98416 13.2608C1.66666 12.4958 1.66666 11.525 1.66666 9.58332V8.74999C1.66666 6.02249 1.66666 4.65832 2.28082 3.65666C2.62419 3.09599 3.09536 2.62453 3.65582 2.28082C4.65832 1.66666 6.02332 1.66666 8.74999 1.66666H11.25C13.9775 1.66666 15.3417 1.66666 16.3442 2.28082C16.9045 2.62429 17.3757 3.09546 17.7192 3.65582C18.3333 4.65832 18.3333 6.02332 18.3333 8.74999V9.58332C18.3333 11.525 18.3333 12.4958 18.0167 13.2608C17.8072 13.7664 17.5001 14.2258 17.1131 14.6127C16.726 14.9996 16.2665 15.3065 15.7608 15.5158C15.2108 15.7442 14.555 15.8075 13.5083 15.8258C12.8 15.8383 12.4458 15.8442 12.1642 16.0083C11.8825 16.1717 11.7075 16.4675 11.3575 17.06Z" fill="#B0B0B0"/>
<path d="M6.04166 7.5C6.04166 7.33424 6.1075 7.17527 6.22471 7.05806C6.34192 6.94085 6.5009 6.875 6.66666 6.875H13.3333C13.4991 6.875 13.6581 6.94085 13.7753 7.05806C13.8925 7.17527 13.9583 7.33424 13.9583 7.5C13.9583 7.66576 13.8925 7.82473 13.7753 7.94194C13.6581 8.05915 13.4991 8.125 13.3333 8.125H6.66666C6.5009 8.125 6.34192 8.05915 6.22471 7.94194C6.1075 7.82473 6.04166 7.66576 6.04166 7.5ZM6.04166 10.4167C6.04166 10.2509 6.1075 10.0919 6.22471 9.97473C6.34192 9.85751 6.5009 9.79167 6.66666 9.79167H11.25C11.4158 9.79167 11.5747 9.85751 11.6919 9.97473C11.8091 10.0919 11.875 10.2509 11.875 10.4167C11.875 10.5824 11.8091 10.7414 11.6919 10.8586C11.5747 10.9758 11.4158 11.0417 11.25 11.0417H6.66666C6.5009 11.0417 6.34192 10.9758 6.22471 10.8586C6.1075 10.7414 6.04166 10.5824 6.04166 10.4167Z" fill="#F6FAF9"/>
</svg>
