<svg width="20" height="20" viewBox="0 0 20 20" fill="none" xmlns="http://www.w3.org/2000/svg">
<g clip-path="url(#clip0_45_550)">
<path fill-rule="evenodd" clip-rule="evenodd" d="M18.7359 12.2656L17.7984 4.76562C17.6803 3.82788 16.8827 3.12468 15.9375 3.125H2.5C1.80964 3.125 1.25 3.68464 1.25 4.375V11.25C1.25 11.9404 1.80964 12.5 2.5 12.5H5.86406L8.81563 18.4047C8.9216 18.6165 9.13818 18.7502 9.375 18.75C11.1009 18.75 12.5 17.3509 12.5 15.625V14.375H16.875C17.4132 14.3752 17.9256 14.1441 18.2817 13.7404C18.6378 13.3368 18.8032 12.7996 18.7359 12.2656ZM5.625 11.25H2.5V4.375H5.625V11.25ZM17.3438 12.9133C17.2259 13.0489 17.0547 13.1262 16.875 13.125H11.875C11.5298 13.125 11.25 13.4048 11.25 13.75V15.625C11.2502 16.5189 10.6195 17.2886 9.74297 17.4641L6.875 11.7273V4.375H15.9375C16.2526 4.37489 16.5184 4.60929 16.5578 4.92188L17.4953 12.4219C17.519 12.6 17.4636 12.7795 17.3438 12.9133Z" fill="#737373"/>
</g>
<defs>
<clipPath id="clip0_45_550">
<rect width="20" height="20" fill="white"/>
</clipPath>
</defs>
</svg>
