<svg width="20" height="20" viewBox="0 0 20 20" fill="none" xmlns="http://www.w3.org/2000/svg">
<g clip-path="url(#clip0_45_543)">
<path fill-rule="evenodd" clip-rule="evenodd" d="M18.2812 6.25938C17.9252 5.85594 17.4131 5.62489 16.875 5.625H12.5V4.375C12.5 2.64911 11.1009 1.25 9.375 1.25C9.13818 1.24983 8.9216 1.38353 8.81563 1.59531L5.86406 7.5H2.5C1.80964 7.5 1.25 8.05964 1.25 8.75V15.625C1.25 16.3154 1.80964 16.875 2.5 16.875H15.9375C16.8827 16.8753 17.6803 16.1721 17.7984 15.2344L18.7359 7.73438C18.8032 7.20023 18.6375 6.66297 18.2812 6.25938ZM2.5 8.75H5.625V15.625H2.5V8.75ZM17.4953 7.57812L16.5578 15.0781C16.5184 15.3907 16.2526 15.6251 15.9375 15.625H6.875V8.27266L9.74297 2.53594C10.6195 2.71136 11.2502 3.48112 11.25 4.375V6.25C11.25 6.59518 11.5298 6.875 11.875 6.875H16.875C17.0544 6.87494 17.2252 6.95198 17.3439 7.08652C17.4626 7.22106 17.5177 7.40012 17.4953 7.57812Z" fill="#737373"/>
</g>
<defs>
<clipPath id="clip0_45_543">
<rect width="20" height="20" fill="white"/>
</clipPath>
</defs>
</svg>
