<svg width="24" height="24" viewBox="0 0 24 24" fill="none" xmlns="http://www.w3.org/2000/svg">
<path fill-rule="evenodd" clip-rule="evenodd" d="M20.77 12C20.77 11.641 20.576 11.406 20.188 10.934C18.768 9.21 15.636 6 12 6C8.36401 6 5.23201 9.21 3.81201 10.934C3.42401 11.406 3.23001 11.641 3.23001 12C3.23001 12.359 3.42401 12.594 3.81201 13.066C5.23201 14.79 8.36401 18 12 18C15.636 18 18.768 14.79 20.188 13.066C20.576 12.594 20.77 12.359 20.77 12ZM12 15C12.7957 15 13.5587 14.6839 14.1213 14.1213C14.6839 13.5587 15 12.7956 15 12C15 11.2044 14.6839 10.4413 14.1213 9.87868C13.5587 9.31607 12.7957 9 12 9C11.2044 9 10.4413 9.31607 9.87869 9.87868C9.31608 10.4413 9.00001 11.2044 9.00001 12C9.00001 12.7956 9.31608 13.5587 9.87869 14.1213C10.4413 14.6839 11.2044 15 12 15Z" fill="#B0B0B0"/>
</svg>
