<svg width="20" height="20" viewBox="0 0 20 20" fill="none" xmlns="http://www.w3.org/2000/svg">
<g clip-path="url(#clip0_170_990)">
<path fill-rule="evenodd" clip-rule="evenodd" d="M13.9062 2.5C12.293 2.5 10.8805 3.19375 10 4.36641C9.11953 3.19375 7.70703 2.5 6.09375 2.5C3.41987 2.50301 1.25301 4.66987 1.25 7.34375C1.25 12.8125 9.35859 17.2391 9.70391 17.4219C9.88878 17.5213 10.1112 17.5213 10.2961 17.4219C10.6414 17.2391 18.75 12.8125 18.75 7.34375C18.747 4.66987 16.5801 2.50301 13.9062 2.5V2.5ZM10 16.1562C8.57344 15.325 2.5 11.5383 2.5 7.34375C2.50258 5.36005 4.11005 3.75258 6.09375 3.75C7.61328 3.75 8.88906 4.55938 9.42188 5.85938C9.51818 6.09382 9.74654 6.2469 10 6.2469C10.2535 6.2469 10.4818 6.09382 10.5781 5.85938C11.1109 4.55703 12.3867 3.75 13.9062 3.75C15.89 3.75258 17.4974 5.36005 17.5 7.34375C17.5 11.532 11.425 15.3242 10 16.1562V16.1562Z" fill="#0C0C20"/>
</g>
<defs>
<clipPath id="clip0_170_990">
<rect width="20" height="20" fill="white"/>
</clipPath>
</defs>
</svg>
